<svg width="307" height="525" viewBox="0 0 307 525" fill="none" xmlns="http://www.w3.org/2000/svg">
<path d="M128.664 5.48323C123.187 8.47045 117.213 13.4492 115.221 16.4364C113.23 19.4236 100.285 23.9045 85.8469 26.8917C53.4853 36.8491 43.528 44.8151 36.0599 97.0915C31.0812 131.943 36.5576 144.389 23.1151 168.785C-14.2252 234.504 3.69811 291.261 8.67689 316.155C18.6342 363.453 68.4215 470.495 89.8299 495.886C114.596 525.261 119.204 522.771 143.102 522.771C223.757 528.248 219.276 517.793 236.204 495.886C264.583 459.044 289.797 340.739 297.442 298.232C309.889 229.027 307.533 211.609 304.91 201.644C292.464 154.353 268.068 142.398 236.204 130.947C223.757 125.968 209.319 118.998 203.842 114.517C180.442 94.1043 173.97 55.2704 190.898 36.8491C204.838 21.913 199.362 11.4577 173.472 4.98536C146.587 -1.98483 141.111 -1.48697 128.664 5.48323ZM116.715 39.3385C141.608 52.781 115.221 114.517 79.3746 124.972C62.447 130.449 53.4854 134.432 53.4854 121.985C53.4854 112.028 53.4853 102.064 53.4853 94.5955C53.4853 76.6722 57.9661 58.2576 68.4214 49.7938C78.3788 42.3257 103.272 32.3683 116.715 39.3385Z" fill="#3274D0"/>
</svg>
