<?xml version="1.0" encoding="UTF-8"?>
<svg width="77px" height="135px" viewBox="0 0 77 135" version="1.1" xmlns="http://www.w3.org/2000/svg" xmlns:xlink="http://www.w3.org/1999/xlink">
    <!-- Generator: Sketch 3.6 (26304) - http://www.bohemiancoding.com/sketch -->
    <title>Untitled</title>
    <desc>Created with Sketch.</desc>
    <defs></defs>
    <g id="Page-1" stroke="none" stroke-width="1" fill="none" fill-rule="evenodd">
        <g id="back" transform="translate(38.500000, 67.500000) rotate(-180.000000) translate(-38.500000, -67.500000) translate(0.000000, 0.000000)" fill="#C8C7C8">
            <path d="M73.614,119.681 C77.012,123.077 77.014,128.593 73.614,131.992 C70.218,135.391 64.704,135.39 61.303,131.992 C61.283,131.972 61.268,131.952 61.25,131.931 L61.225,131.953 L3.565,74.293 L3.589,74.271 C1.979,72.692 0.981,70.496 0.981,68.063 C0.979,65.333 2.239,62.897 4.21,61.301 L4.15,61.243 L61.81,3.583 L61.835,3.607 C61.853,3.586 61.868,3.568 61.888,3.549 C65.288,0.149 70.8,0.149 74.2,3.549 C77.598,6.945 77.598,12.457 74.2,15.86 C74.179,15.88 74.159,15.894 74.139,15.914 L74.162,15.938 L22.043,68.063 L73.583,119.603 L73.558,119.624 C73.573,119.646 73.594,119.66 73.614,119.681" id="Shape"></path>
        </g>
    </g>
</svg>