<?xml version="1.0" encoding="UTF-8"?>
<svg width="20px" height="20px" viewBox="0 0 20 20" version="1.1" xmlns="http://www.w3.org/2000/svg" xmlns:xlink="http://www.w3.org/1999/xlink">
    <!-- Generator: Sketch 3.6 (26304) - http://www.bohemiancoding.com/sketch -->
    <title>Untitled 2</title>
    <desc>Created with Sketch.</desc>
    <defs></defs>
    <g id="Page-1" stroke="none" stroke-width="1" fill="none" fill-rule="evenodd">
        <path d="M10,0 C4.47753906,0 0,4.5907307 0,10.2527988 C0,14.7834545 2.865,18.6257509 6.83898437,19.9811829 C7.33886719,20.0750601 7.52136719,19.7584048 7.52136719,19.4880673 C7.52136719,19.2440027 7.51220703,18.4355134 7.50732422,17.5794448 C4.7265625,18.1989581 4.13878906,16.3704355 4.13878906,16.3704355 C3.68347656,15.1864576 3.02855469,14.8710639 3.02855469,14.8710639 C2.11974609,14.2352702 3.0975,14.2477858 3.0975,14.2477858 C4.10152344,14.3191148 4.63011719,15.3041044 4.63011719,15.3041044 C5.52246094,16.8710605 6.97142578,16.4179949 7.54027344,16.1551668 C7.63117187,15.4943419 7.88996094,15.0412763 8.17503906,14.7859576 C5.95519531,14.5268942 3.62,13.6470359 3.62,9.71837164 C3.62,8.59821332 4.01001953,7.68459283 4.6484375,6.96681682 C4.54650391,6.70649185 4.20226562,5.66330962 4.74730469,4.25218809 C4.74730469,4.25218809 5.5859375,3.97684438 7.49753906,5.30350047 C8.29464844,5.07509534 9.14976563,4.96245473 9.99998047,4.95869003 C10.8495898,4.96245473 11.705293,5.07633689 12.5036523,5.30474202 C14.4116211,3.97684438 15.2514648,4.25342964 15.2514648,4.25342964 C15.7983398,5.66581275 15.4541016,6.7077334 15.3515625,6.96681682 C15.9924219,7.68459283 16.3793945,8.59823335 16.3793945,9.71837164 C16.3793945,13.6570484 14.0405273,14.5243711 11.8127539,14.7784482 C12.1728711,15.0963451 12.4914648,15.7196231 12.4914648,16.6758168 C12.4914648,18.0462875 12.4780273,19.1514071 12.4780273,19.4893289 C12.4780273,19.7621695 12.6599023,20.0813079 13.1665039,19.9811829 C17.1374609,18.6232478 20,14.7809514 20,10.2527988 C20,4.5907307 15.5224609,0 10,0 L10,0 Z" id="Shape" fill="#000000"></path>
    </g>
</svg>