<svg width="265px" height="253px" viewBox="0 0 265 253" version="1.1" xmlns="http://www.w3.org/2000/svg" xmlns:xlink="http://www.w3.org/1999/xlink" xmlns:sketch="http://www.bohemiancoding.com/sketch/ns"><g id="Page-1" stroke="none" stroke-width="1" fill="none" fill-rule="evenodd" sketch:type="MSPage"><path d="M264.308,252.806 L264.308,155.207 C264.308,102.92 236.387,78.587 199.18,78.587 C169.142,78.587 155.682,95.107 148.187,106.695 L148.187,82.582 L91.595,82.582 C92.352,98.557 91.595,252.805 91.595,252.805 L148.187,252.805 L148.187,157.738 C148.187,152.668 148.545,147.582 150.05,143.951 C154.135,133.779 163.438,123.257 179.063,123.257 C199.554,123.257 207.733,138.865 207.733,161.742 L207.733,252.822 L264.308,252.822 L264.308,252.806 L264.308,252.806 Z M31.992,59.349 C51.719,59.349 64.007,46.263 64.007,29.922 C63.641,13.239 51.718,0.527 32.366,0.527 C13.013,0.527 0.359,13.222 0.359,29.922 C0.359,46.263 12.639,59.349 31.633,59.349 L31.992,59.349 L31.992,59.349 Z M60.279,252.806 L60.279,82.583 L3.704,82.583 L3.704,252.806 L60.279,252.806 L60.279,252.806 Z" id="Shape" fill="#303030" sketch:type="MSShapeGroup"></path></g></svg>