<svg width="243px" height="202px" viewBox="0 0 243 202" version="1.1" xmlns="http://www.w3.org/2000/svg" xmlns:xlink="http://www.w3.org/1999/xlink" xmlns:sketch="http://www.bohemiancoding.com/sketch/ns"><defs><path id="path-1" d="M151.725,3.36 C129.899,11.303 116.105,31.778 117.676,54.198 L118.204,62.849 L109.464,61.791 C77.693,57.738 49.926,43.969 26.351,20.833 L14.819,9.358 L11.857,17.83 C5.575,36.726 9.595,56.681 22.681,70.092 C29.663,77.514 28.093,78.572 16.056,74.145 C11.857,72.745 8.195,71.687 7.837,72.208 C6.625,73.445 10.807,89.51 14.12,95.865 C18.669,104.696 27.922,113.338 38.046,118.465 L46.607,122.526 L36.483,122.696 C26.709,122.696 26.359,122.876 27.409,126.587 C30.9,138.069 44.694,150.252 60.059,155.55 L70.883,159.253 L61.459,164.9 C47.494,173.039 31.08,177.612 14.657,177.954 C6.796,178.133 0.334,178.841 0.334,179.378 C0.334,181.136 21.64,191.016 34.034,194.914 C71.225,206.389 115.406,201.433 148.585,181.844 C172.16,167.896 195.728,140.177 206.731,113.339 C212.671,99.048 218.613,72.909 218.613,60.384 C218.613,52.254 219.134,51.196 228.916,41.495 C234.678,35.848 240.081,29.662 241.139,27.905 C242.881,24.544 242.701,24.544 233.799,27.547 C218.955,32.837 216.856,32.137 224.195,24.194 C229.615,18.546 236.077,8.3 236.077,5.298 C236.077,4.777 233.457,5.656 230.486,7.243 C227.345,9.009 220.354,11.662 215.113,13.241 L205.689,16.252 L197.136,10.417 C192.416,7.243 185.792,3.711 182.292,2.653 C173.38,0.186 159.757,0.528 151.725,3.36 L151.725,3.36 Z"></path></defs><g id="Page-1" stroke="none" stroke-width="1" fill="none" fill-rule="evenodd" sketch:type="MSPage"><mask id="mask-2" sketch:name="Mask" fill="white"><use xlink:href="#path-1"></use></mask><use id="Mask" fill="#BCBCBC" sketch:type="MSShapeGroup" xlink:href="#path-1"></use></g></svg>